<?xml version="1.0" encoding="utf-8"?>
<!-- Generator: Adobe Illustrator 24.0.0, SVG Export Plug-In . SVG Version: 6.00 Build 0)  -->
<svg version="1.1" id="Ebene_3" xmlns="http://www.w3.org/2000/svg" xmlns:xlink="http://www.w3.org/1999/xlink" x="0px" y="0px"
	 viewBox="0 0 6757.3 9800.2" style="enable-background:new 0 0 6757.3 9800.2;" xml:space="preserve">
<style type="text/css">
	.st0{fill:url(#SVGID_1_);}
	.st1{fill:url(#SVGID_2_);}
	.st2{fill:url(#SVGID_3_);}
	.st3{fill:url(#SVGID_4_);}
	.st4{fill:url(#SVGID_5_);}
	.st5{fill:url(#SVGID_6_);}
	.st6{fill:url(#SVGID_7_);}
</style>
<linearGradient id="SVGID_1_" gradientUnits="userSpaceOnUse" x1="1604.296" y1="533.5309" x2="3052.2197" y2="3376.5344">
	<stop  offset="0" style="stop-color:#05677C"/>
	<stop  offset="0.9996" style="stop-color:#057E92"/>
</linearGradient>
<polygon class="st0" points="1746.6,1011.6 1744.8,3018.4 3483.6,2014.5 "/>
<linearGradient id="SVGID_2_" gradientUnits="userSpaceOnUse" x1="1746.6375" y1="1952.269" x2="6757.2715" y2="1952.269">
	<stop  offset="0" style="stop-color:#028BAD"/>
	<stop  offset="0.4341" style="stop-color:#35A2B9"/>
	<stop  offset="1" style="stop-color:#7EC3C9"/>
</linearGradient>
<polygon class="st1" points="3471.4,0 1746.6,1011.6 6757.3,3904.5 6752.5,1894.3 "/>
<linearGradient id="SVGID_3_" gradientUnits="userSpaceOnUse" x1="6080.252" y1="2805.7749" x2="3934.7883" y2="5035.7891">
	<stop  offset="0" style="stop-color:#05677C"/>
	<stop  offset="0.9996" style="stop-color:#057E92"/>
</linearGradient>
<polygon class="st2" points="3293.4,3900 5028.9,4902.4 6757.3,3904.5 5020,2898.6 "/>
<linearGradient id="SVGID_4_" gradientUnits="userSpaceOnUse" x1="3292.0447" y1="5901.0322" x2="6752.9648" y2="5901.0322">
	<stop  offset="0" style="stop-color:#028BAD"/>
	<stop  offset="0.4341" style="stop-color:#35A2B9"/>
	<stop  offset="1" style="stop-color:#7EC3C9"/>
</linearGradient>
<polygon class="st3" points="3292,5904.9 6753,7902 6753,5895.3 3293.4,3900 "/>
<linearGradient id="SVGID_5_" gradientUnits="userSpaceOnUse" x1="5732.1509" y1="6269.3555" x2="3248.4863" y2="9746.4863">
	<stop  offset="0" style="stop-color:#028BAD"/>
	<stop  offset="0.4338" style="stop-color:#35A2B9"/>
	<stop  offset="0.9992" style="stop-color:#7EC3C9"/>
</linearGradient>
<polygon class="st4" points="5020.4,6901.6 1739.4,8797.4 3476.2,9800.2 6753,7902 "/>
<linearGradient id="SVGID_6_" gradientUnits="userSpaceOnUse" x1="900.7905" y1="9526.3184" x2="3162.5107" y2="6567.0586">
	<stop  offset="0" style="stop-color:#05677C"/>
	<stop  offset="1" style="stop-color:#057E92"/>
</linearGradient>
<polygon class="st5" points="1739.4,6791.9 1739.4,8797.4 3476.2,7793.8 "/>
<linearGradient id="SVGID_7_" gradientUnits="userSpaceOnUse" x1="-33.181" y1="478.9122" x2="2027.7323" y2="9398.9678">
	<stop  offset="7.040463e-04" style="stop-color:#028BAD"/>
	<stop  offset="0.4329" style="stop-color:#35A2B9"/>
	<stop  offset="0.9962" style="stop-color:#7EC3C9"/>
</linearGradient>
<polygon class="st6" points="0,7793.2 1739.4,8797.4 1746.6,1011.6 0,2020.1 "/>
</svg>
