<svg xmlns="http://www.w3.org/2000/svg" viewBox="9.21 89.21 333.58000000000004 333.58000000000004">
  <path d="M 242.72 256 l 100.07 -100.07 c 12.28 -12.28 12.28 -32.19 0 -44.48 l -22.24 -22.24 c -12.28 -12.28 -32.19 -12.28 -44.48 0 L 176 189.28 L 75.93 89.21 c -12.28 -12.28 -32.19 -12.28 -44.48 0 L 9.21 111.45 c -12.28 12.28 -12.28 32.19 0 44.48 L 109.28 256 L 9.21 356.07 c -12.28 12.28 -12.28 32.19 0 44.48 l 22.24 22.24 c 12.28 12.28 32.2 12.28 44.48 0 L 176 322.72 l 100.07 100.07 c 12.28 12.28 32.2 12.28 44.48 0 l 22.24 -22.24 c 12.28 -12.28 12.28 -32.19 0 -44.48 L 242.72 256 z" fill="#000000"/>
</svg>