<?xml version="1.0" standalone="yes"?>
<svg xmlns="http://www.w3.org/2000/svg" width="512" height="512">
<path style="fill:#010101; stroke:none;" d="M0 0L0 512L512 512L512 0L0 0z"/>
<path style="fill:#ffffff; stroke:none;" d="M506 121C499.55 114.929 496.313 106.925 488 102.529C475.046 95.6776 461.148 97 447 97L381 97L102 97C69.44 97 8.74559 88.6588 10.0147 138C10.1787 144.377 12.5033 150.494 15.6343 156C26.0866 174.382 45.2106 176 64 176L137 176L372 176L443 176C454.254 176 467.958 178.098 478.83 174.91C491.032 171.332 504.338 158.859 506.557 145.985C508.01 137.559 505.864 129.336 506 121M506 241C499.55 234.929 496.313 226.925 488 222.529C475.046 215.678 461.148 217 447 217L381 217L102 217C69.44 217 8.74559 208.659 10.0147 258C10.1787 264.377 12.5033 270.494 15.6343 276C26.0866 294.382 45.2106 296 64 296L137 296L372 296L443 296C454.254 296 467.958 298.098 478.83 294.91C491.032 291.332 504.338 278.859 506.557 265.985C508.01 257.559 505.864 249.336 506 241M506 361C499.55 354.929 496.313 346.925 488 342.529C475.046 335.678 461.148 337 447 337L381 337L102 337C69.44 337 8.74559 328.659 10.0147 378C10.1787 384.377 12.5033 390.494 15.6343 396C26.0866 414.382 45.2106 416 64 416L137 416L372 416L443 416C454.254 416 467.958 418.098 478.83 414.91C491.032 411.332 504.338 398.859 506.557 385.985C508.01 377.559 505.864 369.336 506 361z"/>
</svg>
